<svg width="24" height="19" viewBox="0 0 24 19" fill="none" xmlns="http://www.w3.org/2000/svg">
<path fill-rule="evenodd" clip-rule="evenodd" d="M21.7846 1.73227C21.2323 0.775683 20.0091 0.447932 19.0526 1.00022L1.73205 11.0002C0.775465 11.5525 0.447715 12.7757 0.999999 13.7323C1.55228 14.6889 2.77546 15.0166 3.73205 14.4643L21.0526 4.46432C22.0091 3.91203 22.3369 2.68885 21.7846 1.73227ZM2 15C0.895431 15 0 15.8954 0 17C0 18.1046 0.89543 19 2 19H22C23.1046 19 24 18.1046 24 17C24 15.8954 23.1046 15 22 15H2Z" fill="#EDF2F4"/>
</svg>
