<svg width="512" height="512" viewBox="0 0 512 512" fill="none" xmlns="http://www.w3.org/2000/svg">
<rect width="512" height="512" fill="#2B2D42"/>
<path fill-rule="evenodd" clip-rule="evenodd" d="M87.5001 105C110 131 189 141 252.5 141C340 141 412 125.5 426 105C424.5 133 427.885 139.323 395 163C382.5 172 382.074 187.635 368.074 219.135C346.274 268.186 402.574 298.135 408.074 314.635C413.574 331.135 397.574 351.635 373.074 338.635C331.074 316.35 325.577 301.674 322.074 252.636C320.074 224.636 334.574 184.135 317.574 178.635C305.96 174.878 291.074 181.635 280.074 176.635C269.074 171.635 275.074 179.135 278.074 184.135C281.074 189.135 281.074 204.635 269.574 205.635C258.074 206.635 241.198 200.716 244.574 187.635C248.574 172.135 237.074 166.635 228.574 167.135C220.074 167.635 208.574 167.511 208.574 176.635C208.574 188.635 229.574 187.635 231.574 206.635C233.574 225.635 236.574 264.136 204.574 278.136C172.574 292.136 135.574 255.135 134.074 219.135C132.574 183.135 127.833 170.417 110 187.635C95.5002 201.635 92.1954 186.436 93.5001 181C96.5003 168.5 87.5001 173.566 87.5 156.5C87.5 141 87.5001 127.5 87.5001 105ZM177.575 192.635C182.075 193.135 186.575 188.302 182.575 185.635C176.575 181.635 173.075 192.135 177.575 192.635ZM159.574 214.135C160.074 203.635 167.075 192.573 172.575 194.635C177.575 196.51 169.074 202.135 166.574 213.635C164.287 224.16 168.074 236.635 162.574 236.135C157.074 235.635 158.978 226.661 159.574 214.135ZM201.075 261.136C234.977 258.567 232.15 189.453 193.574 193.635C154.074 197.919 168.075 263.636 201.075 261.136Z" fill="#EDF2F4"/>
<path d="M262.074 217.136C246.762 218.747 235.574 270.735 263.574 273.135C298.574 276.135 271.574 216.136 262.074 217.136Z" fill="#EDF2F4"/>
<path d="M252.5 52C326.5 52 426 65.3 426 92.5C426 126.5 299 136.5 252.5 136.5C203 136.5 87.5001 125.5 87.5001 92.5C87.5001 66.1 182.575 52 252.5 52Z" fill="#EDF2F4"/>
<path fill-rule="evenodd" clip-rule="evenodd" d="M87.5001 105C110 131 189 141 252.5 141C340 141 412 125.5 426 105C424.5 133 427.885 139.323 395 163C382.5 172 382.074 187.635 368.074 219.135C346.274 268.186 402.574 298.135 408.074 314.635C413.574 331.135 397.574 351.635 373.074 338.635C331.074 316.35 325.577 301.674 322.074 252.636C320.074 224.636 334.574 184.135 317.574 178.635C305.96 174.878 291.074 181.635 280.074 176.635C269.074 171.635 275.074 179.135 278.074 184.135C281.074 189.135 281.074 204.635 269.574 205.635C258.074 206.635 241.198 200.716 244.574 187.635C248.574 172.135 237.074 166.635 228.574 167.135C220.074 167.635 208.574 167.511 208.574 176.635C208.574 188.635 229.574 187.635 231.574 206.635C233.574 225.635 236.574 264.136 204.574 278.136C172.574 292.136 135.574 255.135 134.074 219.135C132.574 183.135 127.833 170.417 110 187.635C95.5002 201.635 92.1954 186.436 93.5001 181C96.5003 168.5 87.5001 173.566 87.5 156.5C87.5 141 87.5001 127.5 87.5001 105ZM177.575 192.635C182.075 193.135 186.575 188.302 182.575 185.635C176.575 181.635 173.075 192.135 177.575 192.635ZM159.574 214.135C160.074 203.635 167.075 192.573 172.575 194.635C177.575 196.51 169.074 202.135 166.574 213.635C164.287 224.16 168.074 236.635 162.574 236.135C157.074 235.635 158.978 226.661 159.574 214.135ZM201.075 261.136C234.977 258.567 232.15 189.453 193.574 193.635C154.074 197.919 168.075 263.636 201.075 261.136Z" stroke="#EDF2F4" stroke-width="2"/>
<path d="M262.074 217.136C246.762 218.747 235.574 270.735 263.574 273.135C298.574 276.135 271.574 216.136 262.074 217.136Z" stroke="#EDF2F4" stroke-width="2"/>
<path d="M252.5 52C326.5 52 426 65.3 426 92.5C426 126.5 299 136.5 252.5 136.5C203 136.5 87.5001 125.5 87.5001 92.5C87.5001 66.1 182.575 52 252.5 52Z" stroke="#EDF2F4" stroke-width="2"/>
<path d="M87.5 202C99.7312 210.025 114.122 216.879 130 222.563M426.989 202C411.68 213.958 390.943 223.316 367 230.074M86.5 311C152.227 354.125 280.313 363.436 366.5 338.933M425.989 311C421.73 314.327 417.051 317.452 412 320.376M175.5 234.963C190.038 237.869 205.156 240.011 220.5 241.388M161 231.762C161.997 232.003 162.997 232.241 164 232.475M233 242.338C236.993 242.588 240.995 242.786 245 242.933M281 242.874C294.253 242.338 307.33 241.232 320 239.554M426.989 144V191C428.326 192.167 431 196 431 202C431 208 428.326 210.833 426.989 211.5V301C428.326 301.333 431 303.8 431 311C431 318.2 428.326 321 426.989 321.5V414.5C427.657 414.667 428.994 416 428.994 420C428.994 425 400.914 462 256 462C111.5 462 83.5 425 83.5 420C83.5 416 84.8333 414.667 85.5 414.5V321.5C84.1667 321 81.5 318.2 81.5 311C81.5 303.8 84.1667 301.333 85.5 301V211.5C84.1667 210.833 81.5 208 81.5 202C81.5 196 84.1667 192.167 85.5 191V172" stroke="#EDF2F4" stroke-width="3"/>
<path d="M353.64 379.035L371.191 375.941L368.886 362.87L369.941 360.956L374.666 360.123L374.194 357.442L357.318 360.418L351.749 368.311L353.64 379.035Z" fill="#D90429"/>
<path d="M366.45 388.526L379.276 386.264L379.748 388.946L366.923 391.207L366.45 388.526Z" fill="#D90429"/>
<path d="M376.894 356.966L390.394 354.585L398.327 360.098L401.636 378.866L397.063 384.51L403.409 388.92L406.954 409.029L401.386 416.922L387.885 419.303L387.413 416.622L389.438 416.264L389.995 415.475L385.267 388.664L384.474 388.112L382.449 388.469L381.976 385.788L384.676 385.312L380.185 359.841L379.392 359.29L377.366 359.647L376.894 356.966Z" fill="#D90429"/>
<path d="M359.161 406.398L376.037 403.423L378.519 417.499L379.312 418.05L384.712 417.098L385.185 419.779L368.309 422.754L360.377 417.242L358.604 407.187L359.161 406.398Z" fill="#D90429"/>
<path fill-rule="evenodd" clip-rule="evenodd" d="M294.094 372.352L299.611 435.409L325.559 433.139C333.664 431.405 349.376 422.242 347.383 399.46C345.389 376.677 329.008 370.322 321.066 369.992L294.094 372.352ZM307.212 427.912L302.882 378.415L319.611 376.951C325.549 376.66 337.845 380.89 339.53 400.147C341.215 419.403 329.157 425.764 322.917 426.538L307.212 427.912Z" fill="#EDF2F4"/>
<path d="M232.324 377.021V423.644C232.895 429.77 238.68 441 257.343 441C276.878 441 281.333 429.656 281.676 423.644V377.021H274.136V421.262C273.337 425.572 268.858 434.194 257.343 434.194C245.827 434.194 240.892 424.778 239.864 421.262V377.021H232.324Z" fill="#EDF2F4"/>
<path fill-rule="evenodd" clip-rule="evenodd" d="M178.947 368.169L204.553 370.41C210.308 371.483 221.509 377.154 220.275 391.257C219.296 402.445 212.765 406.314 206.783 407.841L218.527 434.831L209.65 434.054L197.817 408.081L183.136 406.797L180.971 431.545L173.46 430.888L178.947 368.169ZM203.96 377.19L185.865 375.607L183.67 400.694L200.058 402.128C203.913 401.327 211.592 400.063 212.423 390.57C213.211 381.552 207.048 378.599 203.96 377.19Z" fill="#EDF2F4"/>
<path d="M157.282 380.149C157.342 375.206 154.197 364.884 141.142 363.135C124.823 360.948 118.83 377.17 117.353 385.548C115.875 393.927 116.693 411.004 132.218 413.741C147.744 416.479 152.377 407.966 153.086 403.944L160.512 405.253C159.068 409.491 151.684 423.739 131.095 420.109C107.469 415.943 109.859 392.521 111.278 384.477C113.287 373.083 123.085 353.039 142.323 356.432C161.562 359.824 165.417 377.436 164.707 381.458L157.282 380.149Z" fill="#EDF2F4"/>
</svg>
