<svg width="20" height="20" viewBox="0 0 20 20" fill="none" xmlns="http://www.w3.org/2000/svg">
<path fill-rule="evenodd" clip-rule="evenodd" d="M18.4559 1.48528C17.6748 0.704233 16.4085 0.704232 15.6274 1.48528L9.97058 7.14214L4.31373 1.48528C3.53268 0.704233 2.26635 0.704233 1.4853 1.48528C0.704251 2.26633 0.704251 3.53266 1.4853 4.31371L7.14215 9.97056L1.4853 15.6274C0.704252 16.4085 0.704251 17.6748 1.4853 18.4558C2.26635 19.2369 3.53268 19.2369 4.31373 18.4558L9.97058 12.799L15.6274 18.4558C16.4085 19.2369 17.6748 19.2369 18.4559 18.4558C19.2369 17.6748 19.2369 16.4085 18.4559 15.6274L12.799 9.97056L18.4559 4.31371C19.2369 3.53266 19.2369 2.26633 18.4559 1.48528Z" fill="#EF233C"/>
</svg>
